<svg width="301" height="36" viewBox="0 0 301 36" fill="none" xmlns="http://www.w3.org/2000/svg">
<path d="M56.4576 13.0227H49.7376V30.0627H44.9376V13.0227H38.2476V9.06274H56.4576V13.0227ZM65.0685 30.3027C63.3685 30.3027 61.8385 29.9527 60.4785 29.2527C59.1385 28.5327 58.0885 27.5427 57.3285 26.2827C56.5685 25.0227 56.1885 23.5927 56.1885 21.9927C56.1885 20.3927 56.5685 18.9627 57.3285 17.7027C58.0885 16.4427 59.1385 15.4627 60.4785 14.7627C61.8385 14.0427 63.3685 13.6827 65.0685 13.6827C66.7685 13.6827 68.2885 14.0427 69.6285 14.7627C70.9685 15.4627 72.0185 16.4427 72.7785 17.7027C73.5385 18.9627 73.9185 20.3927 73.9185 21.9927C73.9185 23.5927 73.5385 25.0227 72.7785 26.2827C72.0185 27.5427 70.9685 28.5327 69.6285 29.2527C68.2885 29.9527 66.7685 30.3027 65.0685 30.3027ZM65.0685 26.4627C66.2685 26.4627 67.2485 26.0627 68.0085 25.2627C68.7885 24.4427 69.1785 23.3527 69.1785 21.9927C69.1785 20.6327 68.7885 19.5527 68.0085 18.7527C67.2485 17.9327 66.2685 17.5227 65.0685 17.5227C63.8685 17.5227 62.8785 17.9327 62.0985 18.7527C61.3185 19.5527 60.9285 20.6327 60.9285 21.9927C60.9285 23.3527 61.3185 24.4427 62.0985 25.2627C62.8785 26.0627 63.8685 26.4627 65.0685 26.4627ZM92.8874 30.0627V20.4027L88.0574 28.5027H86.0774L81.3674 20.3727V30.0627H77.1374V13.9227H82.0274L87.1874 23.2527L92.6774 13.9227H97.0574L97.1174 30.0627H92.8874ZM101.96 9.06274H106.79V22.7427L116.81 9.06274H121.37V30.0627H116.57V16.4127L106.55 30.0627H101.96V9.06274ZM145.559 9.06274L136.619 25.6827C135.759 27.2827 134.719 28.4927 133.499 29.3127C132.299 30.1327 130.989 30.5427 129.569 30.5427C128.469 30.5427 127.329 30.3027 126.149 29.8227L127.319 26.1327C128.159 26.3927 128.859 26.5227 129.419 26.5227C130.019 26.5227 130.559 26.3827 131.039 26.1027C131.519 25.8027 131.959 25.3427 132.359 24.7227L132.539 24.4827L124.259 9.06274H129.449L135.029 20.3427L140.789 9.06274H145.559ZM157.535 30.4227C155.395 30.4227 153.455 29.9627 151.715 29.0427C149.995 28.1027 148.635 26.8127 147.635 25.1727C146.655 23.5127 146.165 21.6427 146.165 19.5627C146.165 17.4827 146.655 15.6227 147.635 13.9827C148.635 12.3227 149.995 11.0327 151.715 10.1127C153.455 9.17274 155.405 8.70274 157.565 8.70274C159.385 8.70274 161.025 9.02274 162.485 9.66274C163.965 10.3027 165.205 11.2227 166.205 12.4227L163.085 15.3027C161.665 13.6627 159.905 12.8427 157.805 12.8427C156.505 12.8427 155.345 13.1327 154.325 13.7127C153.305 14.2727 152.505 15.0627 151.925 16.0827C151.365 17.1027 151.085 18.2627 151.085 19.5627C151.085 20.8627 151.365 22.0227 151.925 23.0427C152.505 24.0627 153.305 24.8627 154.325 25.4427C155.345 26.0027 156.505 26.2827 157.805 26.2827C159.905 26.2827 161.665 25.4527 163.085 23.7927L166.205 26.6727C165.205 27.8927 163.965 28.8227 162.485 29.4627C161.005 30.1027 159.355 30.4227 157.535 30.4227ZM168.147 19.7427H176.637V23.4927H168.147V19.7427ZM199.909 9.06274V30.0627H195.079V13.0227H185.599V30.0627H180.769V9.06274H199.909ZM214.265 13.6827C215.765 13.6827 217.125 14.0327 218.345 14.7327C219.585 15.4127 220.555 16.3827 221.255 17.6427C221.955 18.8827 222.305 20.3327 222.305 21.9927C222.305 23.6527 221.955 25.1127 221.255 26.3727C220.555 27.6127 219.585 28.5827 218.345 29.2827C217.125 29.9627 215.765 30.3027 214.265 30.3027C212.205 30.3027 210.585 29.6527 209.405 28.3527V35.8827H204.725V13.9227H209.195V15.7827C210.355 14.3827 212.045 13.6827 214.265 13.6827ZM213.455 26.4627C214.655 26.4627 215.635 26.0627 216.395 25.2627C217.175 24.4427 217.565 23.3527 217.565 21.9927C217.565 20.6327 217.175 19.5527 216.395 18.7527C215.635 17.9327 214.655 17.5227 213.455 17.5227C212.255 17.5227 211.265 17.9327 210.485 18.7527C209.725 19.5527 209.345 20.6327 209.345 21.9927C209.345 23.3527 209.725 24.4427 210.485 25.2627C211.265 26.0627 212.255 26.4627 213.455 26.4627ZM233.145 30.3027C231.445 30.3027 229.915 29.9527 228.555 29.2527C227.215 28.5327 226.165 27.5427 225.405 26.2827C224.645 25.0227 224.265 23.5927 224.265 21.9927C224.265 20.3927 224.645 18.9627 225.405 17.7027C226.165 16.4427 227.215 15.4627 228.555 14.7627C229.915 14.0427 231.445 13.6827 233.145 13.6827C234.845 13.6827 236.365 14.0427 237.705 14.7627C239.045 15.4627 240.095 16.4427 240.855 17.7027C241.615 18.9627 241.995 20.3927 241.995 21.9927C241.995 23.5927 241.615 25.0227 240.855 26.2827C240.095 27.5427 239.045 28.5327 237.705 29.2527C236.365 29.9527 234.845 30.3027 233.145 30.3027ZM233.145 26.4627C234.345 26.4627 235.325 26.0627 236.085 25.2627C236.865 24.4427 237.255 23.3527 237.255 21.9927C237.255 20.6327 236.865 19.5527 236.085 18.7527C235.325 17.9327 234.345 17.5227 233.145 17.5227C231.945 17.5227 230.955 17.9327 230.175 18.7527C229.395 19.5527 229.005 20.6327 229.005 21.9927C229.005 23.3527 229.395 24.4427 230.175 25.2627C230.955 26.0627 231.945 26.4627 233.145 26.4627ZM260.904 22.0527C260.904 22.1127 260.874 22.5327 260.814 23.3127H248.604C248.824 24.3127 249.344 25.1027 250.164 25.6827C250.984 26.2627 252.004 26.5527 253.224 26.5527C254.064 26.5527 254.804 26.4327 255.444 26.1927C256.104 25.9327 256.714 25.5327 257.274 24.9927L259.764 27.6927C258.244 29.4327 256.024 30.3027 253.104 30.3027C251.284 30.3027 249.674 29.9527 248.274 29.2527C246.874 28.5327 245.794 27.5427 245.034 26.2827C244.274 25.0227 243.894 23.5927 243.894 21.9927C243.894 20.4127 244.264 18.9927 245.004 17.7327C245.764 16.4527 246.794 15.4627 248.094 14.7627C249.414 14.0427 250.884 13.6827 252.504 13.6827C254.084 13.6827 255.514 14.0227 256.794 14.7027C258.074 15.3827 259.074 16.3627 259.794 17.6427C260.534 18.9027 260.904 20.3727 260.904 22.0527ZM252.534 17.2227C251.474 17.2227 250.584 17.5227 249.864 18.1227C249.144 18.7227 248.704 19.5427 248.544 20.5827H256.494C256.334 19.5627 255.894 18.7527 255.174 18.1527C254.454 17.5327 253.574 17.2227 252.534 17.2227ZM271.601 23.9427H269.171V30.0627H264.491V13.9227H269.171V20.1927H271.691L276.071 13.9227H281.051L275.411 21.6627L281.441 30.0627H275.921L271.601 23.9427ZM297.152 17.7627H291.692V30.0627H287.042V17.7627H281.582V13.9227H297.152V17.7627Z" fill="white"/>
<path fill-rule="evenodd" clip-rule="evenodd" d="M16.7804 14.5077L12.8231 23.7654H16.9604L19.4786 30H23.0762L16.7804 14.5077ZM3.2359 29.0095L3.23796 28.9837L3.2359 29.0095ZM3.23796 28.9837L3.2359 29.0095L3.23796 28.9837ZM32.215 28.5864C34.0854 25.6673 35 22.1551 35 18.381C35 8.25715 27.1388 0 17.4999 0C7.86124 0 0 8.25715 0 18.381C0 22.3355 1.20853 26.0047 3.24058 29.0091L10.6648 14.4134H16.7806L21.8173 1.56607L32.215 28.5864Z" fill="white"/>
</svg>
