<svg width="30" height="30" viewBox="0 0 30 30" fill="none" xmlns="http://www.w3.org/2000/svg">
<g clip-path="url(#clip0_14398_81)">
<path d="M1.99234 1.1134C3.19046 -0.0875353 6.81203 -0.28816 6.83921 0.347465C6.8664 0.982152 10.1008 8.02653 10.1289 8.66215C10.157 9.29778 7.99703 11.4625 7.36515 12.0962C6.7389 12.7234 11.5914 18.2209 11.6833 18.325C11.7864 18.4178 17.2708 23.2815 17.897 22.6534C18.5289 22.0197 20.6898 19.855 21.3217 19.8831C21.9555 19.9103 28.9839 23.1522 29.6176 23.1812C30.2514 23.2084 30.0517 26.8375 28.8536 28.0393C27.8289 29.0659 22.5236 32.7934 13.2986 26.1372C12.287 25.554 10.6848 24.2162 8.25484 21.7815C8.2539 21.7806 8.25203 21.7787 8.25015 21.7778C8.24828 21.775 8.2464 21.774 8.24453 21.7722C8.24265 21.7703 8.24078 21.7684 8.2389 21.7665C8.23796 21.7647 8.23609 21.7628 8.23515 21.7618C5.80703 19.3262 4.47203 17.7193 3.88984 16.7059C-2.75047 7.4584 0.96859 2.13996 1.99234 1.1134V1.1134Z" fill="white"/>
</g>
<defs>
<clipPath id="clip0_14398_81">
<rect width="30" height="30" fill="white"/>
</clipPath>
</defs>
</svg>
